{
  "accessors": [
    {
      "bufferView": 0,
      "componentType": 5126,
      "count": 4,
      "max": [
        2.654263734817505,
        0.0,
        2.654263734817505
      ],
      "min": [
        -2.6542599201202393,
        0.0,
        -2.6542599201202393
      ],
      "type": "VEC3"
    },
    {
      "bufferView": 1,
      "componentType": 5125,
      "count": 4,
      "type": "SCALAR"
    },
    {
      "bufferView": 2,
      "componentType": 5126,
      "count": 4,
      "type": "VEC3"
    },
    {
      "bufferView": 3,
      "componentType": 5126,
      "count": 4,
      "type": "VEC4"
    },
    {
      "bufferView": 4,
      "componentType": 5126,
      "count": 4,
      "type": "VEC2"
    },
    {
      "bufferView": 5,
      "componentType": 5126,
      "count": 4,
      "max": [
        1.4195839166641235,
        0.02693229913711548,
        1.4099239110946655
      ],
      "min": [
        -1.4195899963378906,
        0.02693229913711548,
        -1.4292500019073486
      ],
      "type": "VEC3"
    },
    {
      "bufferView": 6,
      "componentType": 5125,
      "count": 4,
      "type": "SCALAR"
    },
    {
      "bufferView": 7,
      "componentType": 5126,
      "count": 4,
      "type": "VEC3"
    },
    {
      "bufferView": 8,
      "componentType": 5126,
      "count": 4,
      "type": "VEC4"
    },
    {
      "bufferView": 9,
      "componentType": 5126,
      "count": 4,
      "type": "VEC2"
    },
    {
      "bufferView": 10,
      "componentType": 5126,
      "count": 66,
      "max": [
        0.9999960064888,
        0.9999995827674866,
        0.9999960064888
      ],
      "min": [
        -1.0,
        0.01521109975874424,
        -1.0
      ],
      "type": "VEC3"
    },
    {
      "bufferView": 11,
      "componentType": 5125,
      "count": 67,
      "type": "SCALAR"
    },
    {
      "bufferView": 12,
      "componentType": 5126,
      "count": 66,
      "type": "VEC3"
    },
    {
      "bufferView": 13,
      "componentType": 5126,
      "count": 66,
      "type": "VEC4"
    },
    {
      "bufferView": 14,
      "componentType": 5126,
      "count": 66,
      "type": "VEC2"
    },
    {
      "bufferView": 15,
      "componentType": 5126,
      "count": 1456,
      "max": [
        0.5556195974349976,
        1.2648413181304932,
        0.6259894371032715
      ],
      "min": [
        -0.6806640028953552,
        0.23719200491905212,
        -0.6414269804954529
      ],
      "type": "VEC3"
    },
    {
      "bufferView": 16,
      "componentType": 5125,
      "count": 2206,
      "type": "SCALAR"
    },
    {
      "bufferView": 17,
      "componentType": 5126,
      "count": 1456,
      "type": "VEC3"
    },
    {
      "bufferView": 18,
      "componentType": 5126,
      "count": 1456,
      "type": "VEC4"
    },
    {
      "bufferView": 19,
      "componentType": 5126,
      "count": 1456,
      "type": "VEC2"
    },
    {
      "bufferView": 20,
      "componentType": 5126,
      "count": 100,
      "max": [
        4.125
      ],
      "min": [
        0.0
      ],
      "type": "SCALAR"
    },
    {
      "bufferView": 21,
      "componentType": 5126,
      "count": 100,
      "type": "VEC4"
    },
    {
      "bufferView": 22,
      "componentType": 5126,
      "count": 100,
      "max": [
        4.125
      ],
      "min": [
        0.0
      ],
      "type": "SCALAR"
    },
    {
      "bufferView": 23,
      "componentType": 5126,
      "count": 100,
      "type": "VEC4"
    }
  ],
  "animations": [
    {
      "channels": [
        {
          "sampler": 0,
          "target": {
            "node": 6,
            "path": "rotation"
          }
        },
        {
          "sampler": 1,
          "target": {
            "node": 8,
            "path": "rotation"
          }
        }
      ],
      "name": "Animation",
      "samplers": [
        {
          "input": 20,
          "interpolation": "LINEAR",
          "output": 21
        },
        {
          "input": 22,
          "interpolation": "LINEAR",
          "output": 23
        }
      ]
    }
  ],
  "asset": {
    "version": "2.0"
  },
  "bufferViews": [
    {
      "buffer": 0,
      "byteLength": 48,
      "target": 34962
    },
    {
      "buffer": 1,
      "byteLength": 16,
      "target": 34963
    },
    {
      "buffer": 2,
      "byteLength": 48,
      "target": 34962
    },
    {
      "buffer": 3,
      "byteLength": 64,
      "target": 34962
    },
    {
      "buffer": 4,
      "byteLength": 32,
      "target": 34962
    },
    {
      "buffer": 5,
      "byteLength": 48,
      "target": 34962
    },
    {
      "buffer": 6,
      "byteLength": 16,
      "target": 34963
    },
    {
      "buffer": 7,
      "byteLength": 48,
      "target": 34962
    },
    {
      "buffer": 8,
      "byteLength": 64,
      "target": 34962
    },
    {
      "buffer": 9,
      "byteLength": 32,
      "target": 34962
    },
    {
      "buffer": 10,
      "byteLength": 792,
      "target": 34962
    },
    {
      "buffer": 11,
      "byteLength": 268,
      "target": 34963
    },
    {
      "buffer": 12,
      "byteLength": 792,
      "target": 34962
    },
    {
      "buffer": 13,
      "byteLength": 1056,
      "target": 34962
    },
    {
      "buffer": 14,
      "byteLength": 528,
      "target": 34962
    },
    {
      "buffer": 15,
      "byteLength": 17472,
      "target": 34962
    },
    {
      "buffer": 16,
      "byteLength": 8824,
      "target": 34963
    },
    {
      "buffer": 17,
      "byteLength": 17472,
      "target": 34962
    },
    {
      "buffer": 18,
      "byteLength": 23296,
      "target": 34962
    },
    {
      "buffer": 19,
      "byteLength": 11648,
      "target": 34962
    },
    {
      "buffer": 20,
      "byteLength": 400
    },
    {
      "buffer": 21,
      "byteLength": 1600
    },
    {
      "buffer": 22,
      "byteLength": 400
    },
    {
      "buffer": 23,
      "byteLength": 1600
    }
  ],
  "buffers": [
    {
      "byteLength": 48,
      "uri": "data:application/octet-stream;base64,"
    },
    {
      "byteLength": 16,
      "uri": "data:application/octet-stream;base64,"
    },
    {
      "byteLength": 48,
      "uri": "data:application/octet-stream;base64,"
    },
    {
      "byteLength": 64,
      "uri": "data:application/octet-stream;base64,"
    },
    {
      "byteLength": 32,
      "uri": "data:application/octet-stream;base64,"
    },
    {
      "byteLength": 48,
      "uri": "data:application/octet-stream;base64,"
    },
    {
      "byteLength": 16,
      "uri": "data:application/octet-stream;base64,"
    },
    {
      "byteLength": 48,
      "uri": "data:application/octet-stream;base64,"
    },
    {
      "byteLength": 64,
      "uri": "data:application/octet-stream;base64,"
    },
    {
      "byteLength": 32,
      "uri": "data:application/octet-stream;base64,"
    },
    {
      "byteLength": 792,
      "uri": "data:application/octet-stream;base64,"
    },
    {
      "byteLength": 268,
      "uri": "data:application/octet-stream;base64,"
    },
    {
      "byteLength": 792,
      "uri": "data:application/octet-stream;base64,"
    },
    {
      "byteLength": 1056,
      "uri": "data:application/octet-stream;base64,"
    },
    {
      "byteLength": 528,
      "uri": "data:application/octet-stream;base64,"
    },
    {
      "byteLength": 17472,
      "uri": "data:application/octet-stream;base64,"
    },
    {
      "byteLength": 8824,
      "uri": "data:application/octet-stream;base64,"
    },
    {
      "byteLength": 17472,
      "uri": "data:application/octet-stream;base64,"
    },
    {
      "byteLength": 23296,
      "uri": "data:application/octet-stream;base64,"
    },
    {
      "byteLength": 11648,
      "uri": "data:application/octet-stream;base64,"
    },
    {
      "byteLength": 400,
      "uri": "data:application/octet-stream;base64,"
    },
    {
      "byteLength": 1600,
      "uri": "data:application/octet-stream;base64,"
    },
    {
      "byteLength": 400,
      "uri": "data:application/octet-stream;base64,"
    },
    {
      "byteLength": 1600,
      "uri": "data:application/octet-stream;base64,"
    }
  ],
  "extensionsUsed": [
    "KHR_materials_ior",
    "KHR_materials_emissive_strength",
    "KHR_materials_specular"
  ],
  "images": [
    {
      "uri": "textures/portalbase.comb.png"
    },
    {
      "uri": "textures/portalbase.png"
    },
    {
      "uri": "textures/portalEdge.png"
    }
  ],
  "materials": [
    {
      "alphaMode": "BLEND",
      "doubleSided": true,
      "extensions": {
        "KHR_materials_emissive_strength": {
          "emissiveStrength": 1.0
        },
        "KHR_materials_ior": {
          "ior": 1.0499999523162842
        }
      },
      "name": "floor",
      "pbrMetallicRoughness": {
        "baseColorFactor": [
          0.04954899847507477,
          0.04954899847507477,
          0.04954899847507477,
          1.0
        ],
        "baseColorTexture": {
          "index": 0
        },
        "metallicFactor": 0.0,
        "roughnessFactor": 0.6
      }
    },
    {
      "alphaMode": "MASK",
      "doubleSided": true,
      "extensions": {
        "KHR_materials_emissive_strength": {
          "emissiveStrength": 1.0
        },
        "KHR_materials_ior": {
          "ior": 1.0499999523162842
        }
      },
      "name": "base",
      "pbrMetallicRoughness": {
        "baseColorTexture": {
          "index": 1
        },
        "metallicFactor": 0.0,
        "roughnessFactor": 0.6
      }
    },
    {
      "alphaMode": "BLEND",
      "doubleSided": true,
      "extensions": {
        "KHR_materials_specular": {
          "specularFactor": 1.0
        }
      },
      "name": "glow",
      "pbrMetallicRoughness": {
        "baseColorTexture": {
          "index": 2
        },
        "metallicFactor": 0.4678109586238861
      }
    },
    {
      "alphaMode": "BLEND",
      "doubleSided": true,
      "emissiveFactor": [
        1.0,
        1.0,
        1.0
      ],
      "extensions": {
        "KHR_materials_emissive_strength": {
          "emissiveStrength": 3.3981056213378906
        },
        "KHR_materials_specular": {
          "specularFactor": 0.0
        }
      },
      "name": "material_0",
      "pbrMetallicRoughness": {
        "baseColorFactor": [
          1.0,
          1.0,
          1.0,
          0.18742914497852325
        ],
        "metallicFactor": 0.0
      }
    }
  ],
  "meshes": [
    {
      "primitives": [
        {
          "attributes": {
            "NORMAL": 2,
            "POSITION": 0,
            "TANGENT": 3,
            "TEXCOORD_0": 4
          },
          "indices": 1,
          "material": 0,
          "mode": 5
        }
      ]
    },
    {
      "primitives": [
        {
          "attributes": {
            "NORMAL": 7,
            "POSITION": 5,
            "TANGENT": 8,
            "TEXCOORD_0": 9
          },
          "indices": 6,
          "material": 1,
          "mode": 5
        }
      ]
    },
    {
      "primitives": [
        {
          "attributes": {
            "NORMAL": 12,
            "POSITION": 10,
            "TANGENT": 13,
            "TEXCOORD_0": 14
          },
          "indices": 11,
          "material": 2,
          "mode": 5
        }
      ]
    },
    {
      "primitives": [
        {
          "attributes": {
            "NORMAL": 17,
            "POSITION": 15,
            "TANGENT": 18,
            "TEXCOORD_0": 19
          },
          "indices": 16,
          "material": 3,
          "mode": 5
        }
      ]
    }
  ],
  "nodes": [
    {
      "mesh": 0,
      "name": "_gltfNode_0"
    },
    {
      "children": [
        0
      ],
      "name": "groundplane_0"
    },
    {
      "mesh": 1,
      "name": "_gltfNode_2"
    },
    {
      "children": [
        2
      ],
      "name": "PortalBase_1"
    },
    {
      "children": [
        3
      ],
      "name": "Portal_2"
    },
    {
      "mesh": 2,
      "name": "_gltfNode_5"
    },
    {
      "children": [
        5
      ],
      "name": "portalGlow_3"
    },
    {
      "mesh": 3,
      "name": "_gltfNode_7"
    },
    {
      "children": [
        7
      ],
      "name": "dust_4"
    },
    {
      "children": [
        1,
        4,
        6,
        8
      ],
      "name": "Portal effect",
      "rotation": [
        0.7071067811865475,
        0.0,
        0.0,
        0.7071067811865476
      ],
      "scale": [
        1.0,
        1.0,
        1.0
      ],
      "translation": [
        0.0,
        0.0,
        0.0
      ]
    },
    {
      "children": [
        9
      ],
      "name": "GLTF Converted Scene",
      "rotation": [
        -0.7071067811865475,
        0.0,
        0.0,
        0.7071067811865476
      ],
      "scale": [
        1.0,
        1.0,
        1.0
      ],
      "translation": [
        0.0,
        0.0,
        0.0
      ]
    }
  ],
  "samplers": [
    {
      "magFilter": 9729,
      "minFilter": 9987,
      "wrapS": 10497,
      "wrapT": 10497
    },
    {
      "magFilter": 9729,
      "minFilter": 9987,
      "wrapS": 10497,
      "wrapT": 10497
    },
    {
      "magFilter": 9729,
      "minFilter": 9987,
      "wrapS": 10497,
      "wrapT": 10497
    }
  ],
  "scene": 0,
  "scenes": [
    {
      "nodes": [
        10
      ]
    }
  ],
  "textures": [
    {
      "sampler": 0,
      "source": 0
    },
    {
      "sampler": 1,
      "source": 1
    },
    {
      "sampler": 2,
      "source": 2
    }
  ]
}
