{
  "accessors": [
    {
      "bufferView": 0,
      "componentType": 5126,
      "count": 559,
      "max": [
        1.0000008344650269,
        1.0000008344650269,
        1.0000008344650269
      ],
      "min": [
        -1.0,
        -1.0,
        -1.0
      ],
      "type": "VEC3"
    },
    {
      "bufferView": 1,
      "componentType": 5125,
      "count": 1320,
      "type": "SCALAR"
    },
    {
      "bufferView": 2,
      "componentType": 5126,
      "count": 559,
      "type": "VEC3"
    },
    {
      "bufferView": 3,
      "componentType": 5126,
      "count": 559,
      "type": "VEC4"
    },
    {
      "bufferView": 4,
      "componentType": 5126,
      "count": 559,
      "type": "VEC2"
    }
  ],
  "asset": {
    "version": "2.0"
  },
  "bufferViews": [
    {
      "buffer": 0,
      "byteLength": 6708,
      "target": 34962
    },
    {
      "buffer": 1,
      "byteLength": 5280,
      "target": 34963
    },
    {
      "buffer": 2,
      "byteLength": 6708,
      "target": 34962
    },
    {
      "buffer": 3,
      "byteLength": 8944,
      "target": 34962
    },
    {
      "buffer": 4,
      "byteLength": 4472,
      "target": 34962
    }
  ],
  "buffers": [
    {
      "byteLength": 6708,
      "uri": "data:application/octet-stream;base64,"
    },
    {
      "byteLength": 5280,
      "uri": "data:application/octet-stream;base64,"
    },
    {
      "byteLength": 6708,
      "uri": "data:application/octet-stream;base64,"
    },
    {
      "byteLength": 8944,
      "uri": "data:application/octet-stream;base64,"
    },
    {
      "byteLength": 4472,
      "uri": "data:application/octet-stream;base64,"
    }
  ],
  "extensionsUsed": [
    "KHR_materials_emissive_strength"
  ],
  "images": [
    {
      "uri": "textures/animecloud.png"
    }
  ],
  "materials": [
    {
      "doubleSided": true,
      "extensions": {
        "KHR_materials_emissive_strength": {
          "emissiveStrength": 1.0
        }
      },
      "name": "Material.001",
      "pbrMetallicRoughness": {
        "baseColorTexture": {
          "index": 0
        },
        "metallicFactor": 0.0,
        "roughnessFactor": 0.1959591805934906
      }
    }
  ],
  "meshes": [
    {
      "name": "Sphere_Material.001_0",
      "primitives": [
        {
          "attributes": {
            "NORMAL": 2,
            "POSITION": 0,
            "TANGENT": 3,
            "TEXCOORD_0": 4
          },
          "indices": 1,
          "material": 0,
          "mode": 5
        }
      ]
    }
  ],
  "nodes": [
    {
      "mesh": 0,
      "name": "Sphere_Material.001_0"
    },
    {
      "children": [
        0
      ],
      "name": "Sphere",
      "rotation": [
        8.146029999999921e-08,
        0.0,
        0.0,
        0.9999999999999967
      ],
      "scale": [
        500.0,
        500.0,
        500.0
      ],
      "translation": [
        0.0,
        0.0,
        0.0
      ]
    },
    {
      "children": [
        1
      ],
      "name": "RootNode"
    },
    {
      "children": [
        2
      ],
      "name": "Anime Starry Night",
      "rotation": [
        1.1102230246251565e-16,
        0.0,
        0.0,
        1.0
      ],
      "scale": [
        1.0,
        1.0,
        1.0
      ],
      "translation": [
        0.0,
        0.0,
        0.0
      ]
    }
  ],
  "samplers": [
    {
      "magFilter": 9729,
      "minFilter": 9987,
      "wrapS": 10497,
      "wrapT": 10497
    }
  ],
  "scene": 0,
  "scenes": [
    {
      "nodes": [
        3
      ]
    }
  ],
  "textures": [
    {
      "sampler": 0,
      "source": 0
    }
  ]
}
