{
  "accessors": [
    {
      "bufferView": 0,
      "componentType": 5126,
      "count": 6468,
      "max": [
        57545.85546875,
        57545.85546875,
        57545.85546875
      ],
      "min": [
        -57545.8984375,
        -57545.8984375,
        -57545.8984375
      ],
      "type": "VEC3"
    },
    {
      "bufferView": 1,
      "componentType": 5125,
      "count": 13162,
      "type": "SCALAR"
    },
    {
      "bufferView": 2,
      "componentType": 5126,
      "count": 6468,
      "type": "VEC3"
    },
    {
      "bufferView": 3,
      "componentType": 5126,
      "count": 6468,
      "type": "VEC4"
    },
    {
      "bufferView": 4,
      "componentType": 5126,
      "count": 6468,
      "type": "VEC2"
    }
  ],
  "asset": {
    "version": "2.0"
  },
  "bufferViews": [
    {
      "buffer": 0,
      "byteLength": 77616,
      "target": 34962
    },
    {
      "buffer": 1,
      "byteLength": 52648,
      "target": 34963
    },
    {
      "buffer": 2,
      "byteLength": 77616,
      "target": 34962
    },
    {
      "buffer": 3,
      "byteLength": 103488,
      "target": 34962
    },
    {
      "buffer": 4,
      "byteLength": 51744,
      "target": 34962
    }
  ],
  "buffers": [
    {
      "byteLength": 77616,
      "uri": "data:application/octet-stream;base64,"
    },
    {
      "byteLength": 52648,
      "uri": "data:application/octet-stream;base64,"
    },
    {
      "byteLength": 77616,
      "uri": "data:application/octet-stream;base64,"
    },
    {
      "byteLength": 103488,
      "uri": "data:application/octet-stream;base64,"
    },
    {
      "byteLength": 51744,
      "uri": "data:application/octet-stream;base64,"
    }
  ],
  "extensionsUsed": [
    "KHR_materials_emissive_strength"
  ],
  "images": [
    {
      "uri": "textures/Stylized_CloudySky_Cubemap_SHOWREEL_005.png"
    }
  ],
  "materials": [
    {
      "doubleSided": true,
      "extensions": {
        "KHR_materials_emissive_strength": {
          "emissiveStrength": 1.0
        }
      },
      "name": "Material",
      "pbrMetallicRoughness": {
        "baseColorTexture": {
          "index": 0
        },
        "metallicFactor": 0.0,
        "roughnessFactor": 0.0
      }
    }
  ],
  "meshes": [
    {
      "name": "Cube_Material_0",
      "primitives": [
        {
          "attributes": {
            "NORMAL": 2,
            "POSITION": 0,
            "TANGENT": 3,
            "TEXCOORD_0": 4
          },
          "indices": 1,
          "material": 0,
          "mode": 5
        }
      ]
    }
  ],
  "nodes": [
    {
      "mesh": 0,
      "name": "Cube_Material_0"
    },
    {
      "children": [
        0
      ],
      "name": "Cube",
      "rotation": [
        0.0,
        0.0,
        0.0,
        1.0
      ],
      "scale": [
        1.3669099807739258,
        1.3669099807739258,
        1.3669099807739258
      ],
      "translation": [
        0.0,
        0.0,
        0.0
      ]
    },
    {
      "children": [
        1
      ],
      "name": "RootNode"
    },
    {
      "children": [
        2
      ],
      "name": "6k Stylized Cloudy Skybox 005",
      "rotation": [
        1.1102230246251565e-16,
        0.0,
        0.0,
        1.0
      ],
      "scale": [
        0.009999999776482582,
        0.009999999776482582,
        0.009999999776482582
      ],
      "translation": [
        0.0,
        0.0,
        0.0
      ]
    }
  ],
  "samplers": [
    {
      "magFilter": 9729,
      "minFilter": 9987,
      "wrapS": 10497,
      "wrapT": 10497
    }
  ],
  "scene": 0,
  "scenes": [
    {
      "nodes": [
        3
      ]
    }
  ],
  "textures": [
    {
      "sampler": 0,
      "source": 0
    }
  ]
}
